<?xml version="1.0" encoding="utf-8"?>
<!-- Generator: Adobe Illustrator 16.0.0, SVG Export Plug-In . SVG Version: 6.00 Build 0)  -->
<!DOCTYPE svg PUBLIC "-//W3C//DTD SVG 1.1//EN" "http://www.w3.org/Graphics/SVG/1.1/DTD/svg11.dtd">
<svg version="1.1" id="Layer_1" xmlns="http://www.w3.org/2000/svg" xmlns:xlink="http://www.w3.org/1999/xlink" x="0px" y="0px"
	 width="792px" height="612px" viewBox="0 0 792 612" enable-background="new 0 0 792 612" xml:space="preserve">
<ellipse fill="#FDEAEB" stroke="#EC5F62" stroke-width="3" stroke-miterlimit="10" cx="286.327" cy="202.515" rx="27.703" ry="28.96"/>
<path fill="#EC5F62" d="M296.115,175.729c0,0-13.974,23.567-39.511,31.488C256.604,192.366,261.62,160.083,296.115,175.729z"/>
<path fill="#EC5F62" d="M314.674,206.882c0,0,3.775-26.42-16.142-31.986C292.374,177.383,303.497,207.879,314.674,206.882z"/>
<path fill="#EC5F62" d="M286.327,236.386c0,0,27.703-2.97,27.703,53.96c-15.841,0-55.405,0-55.405,0
	S255.653,236.386,286.327,236.386z"/>
<path fill="#FDEAEB" stroke="#EC5F62" stroke-miterlimit="10" d="M276.359,241.313l9.928,22.812l9.26-22.812
	C295.548,241.313,286.214,235.215,276.359,241.313z"/>
<polygon fill="#EC5F62" points="289.335,245.875 282.572,245.875 281.572,239.915 290.335,239.915 "/>
<polygon fill="#EC5F62" points="282.572,247.165 289.335,247.165 290.335,263.353 281.572,263.353 "/>
</svg>
